<?xml version="1.0" encoding="utf-8"?>
<!-- Generator: Adobe Illustrator 22.0.1, SVG Export Plug-In . SVG Version: 6.00 Build 0)  -->
<svg version="1.1" id="Layer_1" xmlns="http://www.w3.org/2000/svg" xmlns:xlink="http://www.w3.org/1999/xlink" x="0px" y="0px"
	 viewBox="0 0 61.8 59.9" style="enable-background:new 0 0 61.8 59.9;" xml:space="preserve">
<style type="text/css">
	.st0{fill:#3CB371;}
	.st1{opacity:0.7;fill:#107148;enable-background:new    ;}
</style>
<g id="Groupe_4255" transform="translate(-1194.452 3595.528)">
	<path id="Tracé_7910" class="st0" d="M1225.4-3594.5c-16.5,0-29.8,13.4-29.8,29.8c0,12.4,7.7,23.6,19.4,27.9l7-18.7
		c-5.1-1.9-7.7-7.7-5.8-12.8c1.9-5.1,7.7-7.7,12.8-5.8s7.7,7.7,5.8,12.8c-1,2.8-3.2,4.9-6,5.9l7.3,18.5
		c15.4-5.8,23.2-23.1,17.3-38.5C1248.9-3586.8,1237.7-3594.5,1225.4-3594.5z"/>
	<path id="Tracé_7911" class="st1" d="M1214.9-3535.6c-0.1,0-0.3,0-0.4-0.1c-16-6-24.1-23.8-18.1-39.8s23.8-24.1,39.8-18.1
		s24.1,23.8,18.1,39.8c-3.1,8.3-9.7,14.9-18,18.1c-0.5,0.2-1.1-0.1-1.4-0.6l-7.3-18.5c-0.1-0.3-0.1-0.6,0-0.8
		c0.1-0.3,0.3-0.5,0.6-0.6c4.6-1.6,7.1-6.7,5.5-11.3s-6.7-7.1-11.3-5.5c-4.6,1.6-7.1,6.7-5.5,11.3c0.9,2.5,2.8,4.5,5.2,5.4
		c0.5,0.2,0.8,0.8,0.6,1.3l0,0l-7,18.7c-0.1,0.3-0.3,0.5-0.6,0.6C1215.2-3535.7,1215-3535.6,1214.9-3535.6z M1225.4-3593.4
		c-15.9,0-28.8,12.9-28.8,28.8c0,11.6,7,22.1,17.7,26.6l6.2-16.7c-5.5-2.7-7.7-9.3-5-14.7c2.7-5.5,9.3-7.7,14.7-5
		c5.5,2.7,7.7,9.3,5,14.7c-1.1,2.3-3,4.1-5.2,5.1l6.5,16.6c14.7-6.2,21.5-23,15.4-37.7C1247.4-3586.5,1236.9-3593.4,1225.4-3593.4z"
		/>
</g>
</svg>
